<svg width="12" height="14" fill="none" xmlns="http://www.w3.org/2000/svg"><path fill-rule="evenodd" clip-rule="evenodd" d="M3.25 4.4c0-1.475 1.22-2.692 2.75-2.692s2.75 1.217 2.75 2.693c0 1.475-1.22 2.692-2.75 2.692S3.25 5.876 3.25 4.401zM6 .209c-2.335 0-4.25 1.866-4.25 4.193 0 2.327 1.915 4.192 4.25 4.192s4.25-1.865 4.25-4.192S8.334.208 6 .208zM2.375 13.666a2.692 2.692 0 012.692-2.693h1.865a2.692 2.692 0 012.692 2.693h1.5a4.192 4.192 0 00-4.192-4.193H5.067a4.192 4.192 0 00-4.192 4.193h1.5z" fill="#D0BC7A"/></svg>