<svg width="12" height="14" viewBox="0 0 12 14" fill="none" xmlns="http://www.w3.org/2000/svg">
<path fill-rule="evenodd" clip-rule="evenodd" d="M3.25023 4.40066C3.25023 2.92535 4.46955 1.70834 5.99983 1.70834C7.53011 1.70834 8.74943 2.92535 8.74943 4.40066C8.74943 5.87596 7.53011 7.09297 5.99983 7.09297C4.46955 7.09297 3.25023 5.87596 3.25023 4.40066ZM5.99983 0.208344C3.66456 0.208344 1.75023 2.07368 1.75023 4.40066C1.75023 6.72763 3.66456 8.59297 5.99983 8.59297C8.3351 8.59297 10.2494 6.72763 10.2494 4.40066C10.2494 2.07368 8.3351 0.208344 5.99983 0.208344ZM2.375 13.6656C2.375 12.1787 3.58039 10.9733 5.06731 10.9733H6.93168C8.4186 10.9733 9.624 12.1787 9.624 13.6656H11.124C11.124 11.3503 9.24703 9.47332 6.93168 9.47332H5.06731C2.75196 9.47332 0.875 11.3503 0.875 13.6656H2.375Z" fill="#D0BC7A"/>
</svg>
